<svg width="170" height="169" viewBox="0 0 170 169" fill="none" xmlns="http://www.w3.org/2000/svg">
<g filter="url(#filter0_d_15644_1212)">
<path d="M82.1072 3.99467C82.0299 2.00797 83.5785 0.326296 85.5667 0.33805C101.14 0.430119 116.381 5.04968 129.413 13.6719C143.447 22.9575 154.21 36.4163 160.183 52.1485C166.156 67.8806 167.037 85.0914 162.702 101.351C158.367 117.611 149.035 132.099 136.022 142.769C123.01 153.44 106.975 159.754 90.1809 160.82C73.3868 161.887 56.682 157.652 42.4245 148.713C28.167 139.774 17.077 126.583 10.72 111.002C4.81718 96.5341 3.27217 80.684 6.23222 65.3938C6.61011 63.4418 8.56252 62.2526 10.4956 62.7175C12.4287 63.1825 13.6096 65.1255 13.2403 67.0791C10.6278 80.9007 12.0535 95.2111 17.3865 108.282C23.1736 122.467 33.2695 134.475 46.249 142.613C59.2285 150.75 74.436 154.606 89.7247 153.635C105.013 152.664 119.611 146.916 131.457 137.202C143.303 127.488 151.799 114.299 155.745 99.4966C159.692 84.6941 158.89 69.0261 153.452 54.7041C148.014 40.3822 138.216 28.1298 125.44 19.6765C113.666 11.8867 99.9122 7.68572 85.8467 7.54048C83.8586 7.51995 82.1845 5.98138 82.1072 3.99467Z" fill="#0088F0"/>
</g>
<defs>
<filter id="filter0_d_15644_1212" x="0.768311" y="0.338013" width="168.645" height="168.644" filterUnits="userSpaceOnUse" color-interpolation-filters="sRGB">
<feFlood flood-opacity="0" result="BackgroundImageFix"/>
<feColorMatrix in="SourceAlpha" type="matrix" values="0 0 0 0 0 0 0 0 0 0 0 0 0 0 0 0 0 0 127 0" result="hardAlpha"/>
<feOffset dy="4"/>
<feGaussianBlur stdDeviation="2"/>
<feComposite in2="hardAlpha" operator="out"/>
<feColorMatrix type="matrix" values="0 0 0 0 0 0 0 0 0 0 0 0 0 0 0 0 0 0 0.25 0"/>
<feBlend mode="normal" in2="BackgroundImageFix" result="effect1_dropShadow_15644_1212"/>
<feBlend mode="normal" in="SourceGraphic" in2="effect1_dropShadow_15644_1212" result="shape"/>
</filter>
</defs>
</svg>
