<svg width="112" height="112" viewBox="0 0 112 112" fill="none" xmlns="http://www.w3.org/2000/svg">
<path d="M54.0931 2.53696C54.0414 1.16034 55.1158 -0.00345384 56.4934 0.00649292C68.4914 0.0931253 80.1661 4.0571 89.7558 11.3418C100.009 19.1305 107.244 30.2333 110.229 42.7585C113.213 55.2837 111.763 68.4562 106.124 80.0318C100.485 91.6073 91.0074 100.87 79.3052 106.24C67.6029 111.611 54.4005 112.758 41.9473 109.486C29.4941 106.214 18.5607 98.7254 11.0101 88.2958C3.45943 77.8662 -0.241311 65.1412 0.538421 52.289C1.2677 40.2682 5.87423 28.8319 13.6314 19.6784C14.5221 18.6274 16.105 18.5716 17.115 19.5084C18.125 20.4452 18.1791 22.0197 17.2931 23.0746C10.3184 31.3788 6.17736 41.7226 5.51798 52.5911C4.80814 64.2913 8.17715 75.8756 15.051 85.3703C21.9248 94.865 31.8781 101.683 43.215 104.661C54.5519 107.64 66.571 106.596 77.2243 101.706C87.8775 96.8171 96.5059 88.385 101.639 77.8471C106.772 67.3092 108.093 55.3173 105.376 43.9149C102.659 32.5124 96.0721 22.4048 86.7381 15.3143C78.0676 8.72789 67.5249 5.12337 56.681 4.99719C55.3035 4.98116 54.1449 3.91358 54.0931 2.53696Z" fill="#EF2A82"/>
</svg>
