<svg width="2010.000000" height="2010.000000" viewBox="0 0 2010 2010" fill="none" xmlns="http://www.w3.org/2000/svg" xmlns:xlink="http://www.w3.org/1999/xlink">
	<desc>
			Created with Pixso.
	</desc>
	<defs/>
	<g opacity="0.070000">
		<path id="Subtract" d="M1005 0C1349.47 0 1653.46 173.306 1834.54 437.483L1130.62 1141.4L716.955 727.732C667.896 678.672 588.354 678.672 539.295 727.732L27.5092 1239.52C9.52405 1164.28 0 1085.75 0 1005C0 449.953 449.954 0 1005 0ZM1219.46 1407.89L1953.99 673.356C1990.28 777.187 2010 888.79 2010 1005C2010 1560.05 1560.05 2010 1005 2010C627.874 2010 299.264 1802.28 127.343 1495.01L628.125 994.223L1041.79 1407.89C1090.85 1456.95 1170.4 1456.95 1219.46 1407.89Z" fill="#8794BA" fill-opacity="1.000000" fill-rule="evenodd"/>
	</g>
</svg>
